<svg width="155" height="40" viewBox="0 0 155 40" fill="none" xmlns="http://www.w3.org/2000/svg">
<path d="M34.1422 5.85781C30.3647 2.08031 25.3422 0 20 0C14.6578 0 9.63531 2.08031 5.85781 5.85781C2.08031 9.63531 0 14.6578 0 20C0 25.3422 2.08039 30.3646 5.85781 34.1422C9.63523 37.9198 14.6578 40 20 40C25.3422 40 30.3647 37.9197 34.1422 34.1422C37.9197 30.3647 40 25.3422 40 20C40 14.6578 37.9196 9.63539 34.1422 5.85781Z" fill="#33CC95"/>
<g clip-path="url(#clip0)">
<path d="M20.5714 8V33.1429" stroke="white" stroke-width="2" stroke-linecap="round" stroke-linejoin="round"/>
<path d="M26.2857 12.5714H17.7143C16.6534 12.5714 15.636 12.9929 14.8859 13.743C14.1357 14.4931 13.7143 15.5106 13.7143 16.5714C13.7143 17.6323 14.1357 18.6497 14.8859 19.3999C15.636 20.15 16.6534 20.5714 17.7143 20.5714H23.4286C24.4894 20.5714 25.5069 20.9929 26.257 21.743C27.0072 22.4932 27.4286 23.5106 27.4286 24.5714C27.4286 25.6323 27.0072 26.6497 26.257 27.3999C25.5069 28.15 24.4894 28.5714 23.4286 28.5714H13.7143" stroke="white" stroke-width="2" stroke-linecap="round" stroke-linejoin="round"/>
</g>
<path d="M155 12.2941H149.441V18H145.559V12.2941H140V8.70588H145.559V3H149.441V8.70588H155V12.2941Z" fill="white"/>
<path d="M75.5039 14.512C77.1359 14.512 78.4479 15.016 79.4399 16.024C80.4479 17.016 80.9519 18.408 80.9519 20.2V28H77.5919V20.656C77.5919 19.616 77.3279 18.824 76.7999 18.28C76.2719 17.72 75.5519 17.44 74.6399 17.44C73.7279 17.44 72.9999 17.72 72.4559 18.28C71.9279 18.824 71.6639 19.616 71.6639 20.656V28H68.3039V20.656C68.3039 19.616 68.0399 18.824 67.5119 18.28C66.9839 17.72 66.2639 17.44 65.3519 17.44C64.4239 17.44 63.6879 17.72 63.1439 18.28C62.6159 18.824 62.3519 19.616 62.3519 20.656V28H58.9919V14.704H62.3519V16.312C62.7839 15.752 63.3359 15.312 64.0079 14.992C64.6959 14.672 65.4479 14.512 66.2639 14.512C67.3039 14.512 68.2319 14.736 69.0479 15.184C69.8639 15.616 70.4959 16.24 70.9439 17.056C71.3759 16.288 71.9999 15.672 72.8159 15.208C73.6479 14.744 74.5439 14.512 75.5039 14.512Z" fill="white"/>
<path d="M90.0444 28.216C88.7644 28.216 87.6124 27.936 86.5884 27.376C85.5644 26.8 84.7564 25.992 84.1644 24.952C83.5884 23.912 83.3004 22.712 83.3004 21.352C83.3004 19.992 83.5964 18.792 84.1884 17.752C84.7964 16.712 85.6204 15.912 86.6604 15.352C87.7004 14.776 88.8604 14.488 90.1404 14.488C91.4204 14.488 92.5804 14.776 93.6204 15.352C94.6604 15.912 95.4764 16.712 96.0684 17.752C96.6764 18.792 96.9804 19.992 96.9804 21.352C96.9804 22.712 96.6684 23.912 96.0444 24.952C95.4364 25.992 94.6044 26.8 93.5484 27.376C92.5084 27.936 91.3404 28.216 90.0444 28.216ZM90.0444 25.288C90.6524 25.288 91.2204 25.144 91.7484 24.856C92.2924 24.552 92.7244 24.104 93.0444 23.512C93.3644 22.92 93.5244 22.2 93.5244 21.352C93.5244 20.088 93.1884 19.12 92.5164 18.448C91.8604 17.76 91.0524 17.416 90.0924 17.416C89.1324 17.416 88.3244 17.76 87.6684 18.448C87.0284 19.12 86.7084 20.088 86.7084 21.352C86.7084 22.616 87.0204 23.592 87.6444 24.28C88.2844 24.952 89.0844 25.288 90.0444 25.288Z" fill="white"/>
<path d="M106.813 14.512C108.397 14.512 109.677 15.016 110.653 16.024C111.629 17.016 112.117 18.408 112.117 20.2V28H108.757V20.656C108.757 19.6 108.493 18.792 107.965 18.232C107.437 17.656 106.717 17.368 105.805 17.368C104.877 17.368 104.141 17.656 103.597 18.232C103.069 18.792 102.805 19.6 102.805 20.656V28H99.4451V14.704H102.805V16.36C103.253 15.784 103.821 15.336 104.509 15.016C105.213 14.68 105.981 14.512 106.813 14.512Z" fill="white"/>
<path d="M127.672 21.064C127.672 21.544 127.64 21.976 127.576 22.36H117.856C117.936 23.32 118.272 24.072 118.864 24.616C119.456 25.16 120.184 25.432 121.048 25.432C122.296 25.432 123.184 24.896 123.712 23.824H127.336C126.952 25.104 126.216 26.16 125.128 26.992C124.04 27.808 122.704 28.216 121.12 28.216C119.84 28.216 118.688 27.936 117.664 27.376C116.656 26.8 115.864 25.992 115.288 24.952C114.728 23.912 114.448 22.712 114.448 21.352C114.448 19.976 114.728 18.768 115.288 17.728C115.848 16.688 116.632 15.888 117.64 15.328C118.648 14.768 119.808 14.488 121.12 14.488C122.384 14.488 123.512 14.76 124.504 15.304C125.512 15.848 126.288 16.624 126.832 17.632C127.392 18.624 127.672 19.768 127.672 21.064ZM124.192 20.104C124.176 19.24 123.864 18.552 123.256 18.04C122.648 17.512 121.904 17.248 121.024 17.248C120.192 17.248 119.488 17.504 118.912 18.016C118.352 18.512 118.008 19.208 117.88 20.104H124.192Z" fill="white"/>
<path d="M142.845 14.704L134.613 34.288H131.037L133.917 27.664L128.589 14.704H132.357L135.789 23.992L139.269 14.704H142.845Z" fill="white"/>
<defs>
<clipPath id="clip0">
<rect width="27.4286" height="27.4286" fill="white" transform="translate(6.85715 6.85714)"/>
</clipPath>
</defs>
</svg>
